<?xml version="1.0" standalone="no"?>
<!DOCTYPE svg PUBLIC "-//W3C//DTD SVG 20010904//EN"
 "http://www.w3.org/TR/2001/REC-SVG-20010904/DTD/svg10.dtd">
<svg version="1.0" xmlns="http://www.w3.org/2000/svg"
 width="460.000000pt" height="460.000000pt" viewBox="0 0 460.000000 460.000000"
 preserveAspectRatio="xMidYMid meet">
<metadata>
Created by potrace 1.14, written by Peter Selinger 2001-2017
</metadata>
<g transform="translate(0.000000,460.000000) scale(0.100000,-0.100000)"
fill="#000000" stroke="none">
<path d="M4565 3660 c3 -5 -1 -10 -9 -10 -9 0 -16 -4 -16 -8 0 -5 -16 -16 -35
-25 -19 -9 -35 -23 -35 -31 0 -10 -7 -12 -22 -8 -14 3 -19 2 -14 -6 6 -11 -6
-16 -26 -13 -5 0 -8 -2 -8 -6 0 -5 -10 -9 -22 -9 -33 -3 -98 -11 -133 -18 -16
-3 -38 -7 -48 -9 -34 -6 -39 -22 -17 -60 14 -23 17 -38 10 -42 -6 -3 -8 -11
-5 -16 10 -15 -12 -10 -27 6 -31 35 -38 45 -38 59 0 21 -21 31 -30 16 -5 -7
-6 -29 -3 -48 4 -22 1 -37 -7 -42 -14 -9 -40 11 -40 29 0 6 -4 11 -10 11 -5 0
-15 21 -21 46 -12 45 -51 104 -70 104 -6 0 -8 -4 -5 -9 6 -9 -20 -20 -59 -27
-48 -8 -113 -9 -109 -2 3 5 0 8 -6 8 -6 0 -14 -8 -17 -17 -4 -10 -15 -24 -25
-31 -10 -7 -18 -20 -18 -28 0 -8 -7 -14 -15 -14 -10 0 -15 -10 -15 -32 0 -17
-7 -40 -17 -50 -13 -14 -13 -18 -2 -18 9 0 10 -3 3 -8 -6 -4 -8 -31 -4 -74 3
-38 2 -68 -2 -68 -4 0 -5 -7 -2 -15 4 -9 1 -15 -7 -15 -17 0 -49 -54 -49 -81
0 -12 -10 -23 -26 -29 -21 -8 -25 -16 -22 -34 4 -17 1 -23 -9 -19 -7 3 -13 0
-13 -5 0 -14 -38 -26 -71 -23 -14 1 -42 -7 -62 -18 -19 -11 -37 -18 -39 -17
-1 2 -12 -5 -22 -15 -15 -14 -16 -19 -5 -19 10 0 11 -2 2 -8 -7 -5 -13 -31
-14 -62 -1 -59 -14 -105 -37 -132 -8 -10 -12 -24 -9 -32 8 -20 -27 -39 -54
-31 -27 9 -39 44 -26 74 10 20 8 26 -13 43 -13 11 -26 15 -28 10 -1 -5 -12 -7
-24 -4 -14 3 -19 1 -14 -6 5 -9 0 -9 -19 -2 -34 13 -38 13 -29 -2 6 -10 4 -10
-7 0 -23 21 -38 13 -45 -23 -12 -66 -58 -75 -122 -25 -17 14 -29 17 -36 10 -5
-5 -26 -10 -45 -10 -19 0 -31 -3 -28 -7 4 -3 -1 -12 -10 -18 -15 -11 -13 -14
22 -24 22 -6 47 -11 55 -11 12 0 15 -13 14 -63 -1 -83 -1 -84 -23 -90 -23 -6
-51 21 -51 47 0 13 -5 16 -20 11 -11 -3 -20 -3 -20 2 0 5 -11 10 -25 11 -14 1
-24 -2 -24 -6 1 -4 0 -10 -1 -14 -1 -5 -3 -13 -4 -20 0 -6 -20 -18 -43 -25
-32 -11 -40 -18 -36 -31 4 -9 11 -20 17 -24 7 -5 7 -8 -2 -8 -7 0 -11 -3 -9
-7 3 -5 1 -18 -3 -29 -11 -29 -58 -21 -70 11 -11 29 -17 32 -60 37 -23 2 -35
-1 -36 -9 -1 -7 -3 -15 -4 -18 -1 -3 -4 -9 -5 -15 -1 -5 -4 -12 -5 -15 -4 -7
-5 -15 -14 -57 -6 -26 -21 -48 -56 -77 -47 -40 -68 -51 -55 -31 11 18 -4 11
-25 -12 -11 -12 -18 -28 -16 -35 3 -7 -1 -13 -9 -13 -10 0 -14 -9 -11 -30 2
-16 1 -30 -3 -30 -13 0 -66 -53 -63 -63 2 -6 -3 -5 -12 2 -8 7 -23 11 -33 10
-10 -2 -44 6 -75 16 -56 18 -66 29 -74 75 -2 8 -10 20 -20 25 -9 6 -28 21 -43
35 -46 44 -75 57 -129 58 -41 1 -63 8 -96 31 -37 26 -43 35 -44 67 -2 40 -18
58 -42 47 -8 -3 -34 -8 -58 -11 -32 -3 -42 -8 -38 -18 3 -8 0 -13 -6 -11 -7 1
-14 -6 -16 -17 -2 -10 0 -16 6 -12 15 9 2 -31 -14 -45 -8 -6 -14 -8 -14 -4 0
4 -8 1 -17 -6 -11 -10 -14 -10 -9 -1 4 6 3 12 -3 12 -5 0 -20 14 -32 32 -13
17 -17 28 -9 23 10 -6 12 -4 7 8 -3 9 -2 19 4 23 6 3 8 13 5 21 -3 8 -1 11 4
8 6 -3 10 -2 10 3 0 6 -16 10 -35 9 -36 -1 -36 -2 -19 -52 10 -29 -52 -58 -63
-30 -3 8 -9 15 -15 15 -5 0 -6 -5 -2 -12 4 -7 3 -8 -4 -4 -6 4 -9 13 -5 22 3
8 -6 26 -21 41 -24 24 -28 31 -25 49 2 14 -27 24 -52 18 -32 -6 -59 17 -59 52
0 20 -5 24 -28 24 -16 0 -37 7 -48 15 -10 8 -27 15 -36 15 -18 0 -79 56 -70
65 3 3 2 5 -2 5 -4 0 -14 -6 -22 -14 -15 -15 -54 -10 -54 7 0 5 -8 16 -17 23
-17 13 -17 14 0 8 11 -4 17 -1 17 10 0 8 10 20 21 27 18 9 19 13 8 24 -8 8
-21 15 -28 17 -18 4 -61 47 -62 62 -2 21 -5 31 -17 58 -10 25 -14 27 -39 17
-15 -5 -32 -14 -38 -18 -17 -13 -55 -20 -55 -9 0 5 -4 6 -10 3 -20 -12 -14 53
6 76 12 14 13 21 2 44 -10 23 -17 26 -45 23 -18 -2 -33 0 -33 5 0 5 -5 7 -11
5 -7 -2 -27 12 -45 31 -31 31 -39 33 -35 8 1 -5 -3 -5 -9 -2 -7 4 -14 -2 -17
-14 -3 -11 -9 -18 -14 -15 -5 3 -6 16 -3 29 3 12 1 26 -5 30 -7 4 -2 18 14 39
14 18 25 36 25 40 0 14 -37 55 -44 49 -3 -3 -6 0 -6 8 0 12 -2 11 -10 -1 -6
-8 -8 -37 -5 -65 5 -42 2 -54 -18 -78 -16 -19 -29 -26 -40 -21 -22 8 -21 23 2
54 17 22 18 27 5 52 -8 15 -11 28 -7 28 5 0 2 4 -6 9 -11 7 -9 10 7 15 11 4
22 16 25 27 5 17 2 20 -16 15 -12 -3 -29 -1 -37 4 -12 8 -13 10 -1 10 8 0 12
2 9 5 -8 8 -39 -6 -33 -15 2 -4 -8 -13 -22 -19 -16 -7 -23 -15 -16 -19 25 -16
35 -53 23 -82 -7 -16 -9 -34 -5 -39 3 -6 1 -11 -6 -11 -6 0 -9 -8 -6 -20 3
-11 2 -22 -3 -25 -4 -3 -7 -20 -6 -39 1 -19 -1 -33 -3 -30 -2 2 -12 -14 -22
-36 -12 -27 -24 -40 -38 -40 -10 0 -21 -5 -23 -12 -5 -14 -68 -20 -65 -6 1 5
-6 15 -15 21 -15 10 -21 8 -34 -11 -12 -17 -19 -20 -29 -12 -9 7 -15 7 -23 -2
-14 -17 -12 -251 2 -260 8 -5 8 -8 0 -8 -9 0 -12 -333 -13 -1310 l-1 -1310
2300 0 2300 0 0 1835 c-1 1832 -1 1835 -21 1835 -11 0 -17 -4 -14 -10z m15
-54 c0 -2 -7 -7 -16 -10 -8 -3 -12 -2 -9 4 6 10 25 14 25 6z m-235 -134 c-3
-3 -11 0 -18 7 -9 10 -8 11 6 5 10 -3 15 -9 12 -12z m-115 -106 c0 -2 -7 -7
-16 -10 -8 -3 -12 -2 -9 4 6 10 25 14 25 6z m-435 -134 c-3 -3 -11 0 -18 7 -9
10 -8 11 6 5 10 -3 15 -9 12 -12z m350 0 c-3 -3 -11 0 -18 7 -9 10 -8 11 6 5
10 -3 15 -9 12 -12z m-3692 -45 c3 -8 -1 -14 -8 -14 -7 0 -11 6 -8 14 3 7 6
13 8 13 2 0 5 -6 8 -13z m-133 -107 c6 -11 8 -20 6 -20 -3 0 -10 9 -16 20 -6
11 -8 20 -6 20 3 0 10 -9 16 -20z m90 -24 c0 -2 -8 -10 -17 -17 -16 -13 -17
-12 -4 4 13 16 21 21 21 13z m-34 -65 c-9 -16 -12 -31 -9 -35 17 -16 -18 -3
-38 15 -13 11 -18 18 -11 14 6 -3 12 -2 12 3 0 8 36 30 53 31 4 1 1 -12 -7
-28z m-61 -151 c-3 -5 -12 -10 -18 -10 -7 0 -6 4 3 10 19 12 23 12 15 0z m145
-4 c0 -2 -7 -7 -16 -10 -8 -3 -12 -2 -9 4 6 10 25 14 25 6z m410 -90 c0 -2 -7
-7 -16 -10 -8 -3 -12 -2 -9 4 6 10 25 14 25 6z m-635 -44 c-3 -3 -11 0 -18 7
-9 10 -8 11 6 5 10 -3 15 -9 12 -12z m3510 -90 c-3 -3 -11 0 -18 7 -9 10 -8
11 6 5 10 -3 15 -9 12 -12z m-3630 -140 c-3 -3 -11 0 -18 7 -9 10 -8 11 6 5
10 -3 15 -9 12 -12z m775 -7 c0 -2 -10 -9 -22 -15 -22 -11 -22 -10 -4 4 21 17
26 19 26 11z m-765 -44 c3 -5 2 -12 -3 -15 -5 -3 -9 1 -9 9 0 17 3 19 12 6z
m350 0 c3 -5 0 -13 -6 -17 -7 -4 -9 -3 -5 4 3 5 0 13 -6 15 -9 4 -10 6 -1 6 6
1 14 -3 18 -8z m-410 -31 c3 -6 -1 -7 -9 -4 -18 7 -21 14 -7 14 6 0 13 -4 16
-10z m275 -144 c0 -2 -7 -7 -16 -10 -8 -3 -12 -2 -9 4 6 10 25 14 25 6z m-255
-194 c-3 -3 -11 0 -18 7 -9 10 -8 11 6 5 10 -3 15 -9 12 -12z m230 -230 c-3
-3 -11 0 -18 7 -9 10 -8 11 6 5 10 -3 15 -9 12 -12z m50 -22 c-3 -5 -12 -10
-18 -10 -7 0 -6 4 3 10 19 12 23 12 15 0z m30 -128 c-3 -3 -11 0 -18 7 -9 10
-8 11 6 5 10 -3 15 -9 12 -12z m-330 -12 c10 -11 16 -20 13 -20 -3 0 -13 9
-23 20 -10 11 -16 20 -13 20 3 0 13 -9 23 -20z m-25 -64 c0 -2 -7 -7 -16 -10
-8 -3 -12 -2 -9 4 6 10 25 14 25 6z m325 -134 c-3 -3 -11 0 -18 7 -9 10 -8 11
6 5 10 -3 15 -9 12 -12z m165 -96 c0 -2 -7 -7 -16 -10 -8 -3 -12 -2 -9 4 6 10
25 14 25 6z m-330 -180 c0 -2 -7 -7 -16 -10 -8 -3 -12 -2 -9 4 6 10 25 14 25
6z"/>
</g>
</svg>
